# xmcd
#
# Track frame offsets: 
#        150
#        16813
#        38673
#        53468
#        69313
#        92098
#        113830
#        137655
#        153620
#        175928
#        199078
#        221245
#
# Disc length: 3238 seconds
#
# Revision: 2
# Processed by: cddbd v1.5.2PL0 Copyright (c) Steve Scherf et al.
# Submitted via: ExactAudioCopy v0.99pb3
#
DISCID=9e0ca40c
DTITLE=La Vienta - Mario Otero, Stefan Schyga - Night Dance
DYEAR=1994
DGENRE=Latin Jazz
TTITLE0=The Journey
TTITLE1=Love for Isabel
TTITLE2=Ariana
TTITLE3=Tranquillo
TTITLE4=El Gato Negro
TTITLE5=Ojo Caliente
TTITLE6=Carnival
TTITLE7=Beto's Turn
TTITLE8=Goodbye Tomorrow
TTITLE9=En la Coeva
TTITLE10=Promise of St. Matthew
TTITLE11=Samba Loco
EXTD=
EXTT0=
EXTT1=
EXTT2=
EXTT3=
EXTT4=
EXTT5=
EXTT6=
EXTT7=
EXTT8=
EXTT9=
EXTT10=
EXTT11=
PLAYORDER=
